<svg width="81" height="81" viewBox="0 0 81 81" fill="none" xmlns="http://www.w3.org/2000/svg">
<path d="M54.9675 7.48389H26.0675C14.7675 7.48389 7.16748 15.4172 7.16748 27.2172V54.4506C7.16748 66.2172 14.7675 74.1506 26.0675 74.1506H54.9675C66.2675 74.1506 73.8341 66.2172 73.8341 54.4506V27.2172C73.8341 15.4172 66.2675 7.48389 54.9675 7.48389Z" fill="#1779F2"/>
<path d="M51.3284 35.2839C50.5817 35.2839 49.8351 35.0006 49.2651 34.4306L41.355 26.5206C40.215 25.3806 40.215 23.5339 41.355 22.3972C42.495 21.2572 44.3383 21.2539 45.4783 22.3939L51.3284 28.2439L65.0884 14.4839C66.2284 13.3439 68.0717 13.3439 69.2117 14.4839C70.3517 15.6239 70.3517 17.4706 69.2117 18.6106L53.3917 34.4306C52.8217 35.0006 52.0751 35.2839 51.3284 35.2839Z" fill="white"/>
<path fill-rule="evenodd" clip-rule="evenodd" d="M30.0104 29.7358V29.7655C28.7334 29.7655 27.6993 30.8025 27.6993 32.0766C27.6993 33.3507 28.7334 34.3877 30.0104 34.3877H34.8667C36.1437 34.3877 37.1808 33.3507 37.1808 32.044C37.1808 30.7729 36.1437 29.7358 34.8667 29.7358H30.0104ZM53.24 47.7803H30.0104C28.7334 47.7803 27.6993 46.7432 27.6993 45.4692C27.6993 44.1951 28.7334 43.1551 30.0104 43.1551H53.24C54.5141 43.1551 55.5511 44.1951 55.5511 45.4692C55.5511 46.7432 54.5141 47.7803 53.24 47.7803ZM53.24 61.321H30.0104C29.1215 61.4395 28.2622 60.9951 27.7882 60.2544C27.3141 59.484 27.3141 58.5062 27.7882 57.7655C28.2622 56.9951 29.1215 56.5803 30.0104 56.6692H53.24C54.4222 56.7877 55.3141 57.7951 55.3141 59.0099C55.3141 60.1921 54.4222 61.2025 53.24 61.321Z" fill="white"/>
<ellipse cx="20.2165" cy="32.4025" rx="2.66667" ry="2.66667" fill="white"/>
<ellipse cx="20.2165" cy="45.7355" rx="2.66667" ry="2.66667" fill="white"/>
<ellipse cx="20.2165" cy="59.069" rx="2.66667" ry="2.66667" fill="white"/>
</svg>
