<svg width="82" height="83" viewBox="0 0 82 83" fill="none" xmlns="http://www.w3.org/2000/svg">
<ellipse cx="41.0004" cy="41.8179" rx="29.6" ry="30" fill="#01C2A9"/>
<path d="M2.5332 41.8179C2.5332 41.2656 2.08549 40.8179 1.5332 40.8179C0.980918 40.8179 0.533203 41.2656 0.533203 41.8179H2.5332ZM79.4665 41.8179C79.4665 63.3697 62.2318 80.8179 40.9999 80.8179V82.8179C63.3616 82.8179 81.4665 64.4488 81.4665 41.8179H79.4665ZM40.9999 80.8179C19.7679 80.8179 2.5332 63.3697 2.5332 41.8179H0.533203C0.533203 64.4488 18.6381 82.8179 40.9999 82.8179V80.8179ZM40.9999 2.81787C62.2318 2.81787 79.4665 20.2661 79.4665 41.8179H81.4665C81.4665 19.1869 63.3616 0.817871 40.9999 0.817871V2.81787Z" fill="url(#paint0_angular)"/>
<path d="M34.0748 43.5064V46.7593H32.3354V48.9731H28.4499V46.7593H21.0856V45.7428L25.5358 34.0637H29.5342L25.8972 43.5064H28.4499V39.8468H32.3354V43.5064H34.0748ZM46.8089 44.8844C46.8089 46.2247 46.2667 47.2864 45.1824 48.0695C44.0981 48.8527 42.705 49.2442 41.0032 49.2442C39.2864 49.2442 37.8858 48.8527 36.8015 48.0695C35.7172 47.2864 35.175 46.2247 35.175 44.8844C35.175 43.2428 36.0334 42.038 37.7503 41.27C36.4702 40.3965 35.8301 39.267 35.8301 37.8815C35.8301 36.6014 36.312 35.5999 37.2759 34.877C38.2548 34.1541 39.4972 33.7927 41.0032 33.7927C42.5092 33.7927 43.7441 34.1541 44.708 34.877C45.6718 35.5999 46.1537 36.6014 46.1537 37.8815C46.1537 39.267 45.5137 40.3965 44.2336 41.27C45.9504 42.038 46.8089 43.2428 46.8089 44.8844ZM39.3767 38.0622C39.3767 38.3784 39.5048 38.657 39.7608 38.898C40.0168 39.139 40.4309 39.4025 41.0032 39.6887C41.5755 39.4176 41.9821 39.154 42.2231 38.898C42.4791 38.642 42.6071 38.3558 42.6071 38.0396C42.6071 37.6781 42.4565 37.392 42.1553 37.1812C41.8541 36.9553 41.4701 36.8423 41.0032 36.8423C40.5364 36.8423 40.1448 36.9553 39.8285 37.1812C39.5273 37.4071 39.3767 37.7007 39.3767 38.0622ZM42.9686 44.7262C42.9686 43.9582 42.3059 43.3407 40.9806 42.8738C39.6704 43.3558 39.0153 43.9732 39.0153 44.7262C39.0153 45.163 39.181 45.5093 39.5123 45.7654C39.8587 46.0214 40.3556 46.1494 41.0032 46.1494C41.6357 46.1494 42.1177 46.0214 42.449 45.7654C42.7954 45.5093 42.9686 45.163 42.9686 44.7262ZM60.0178 42.0154V48.9731H56.1324V42.5802C56.1324 42.0832 55.9742 41.6841 55.658 41.3829C55.3568 41.0666 54.9652 40.9085 54.4833 40.9085C54.0014 40.9085 53.6098 41.0666 53.3086 41.3829C53.0074 41.6841 52.8568 42.0832 52.8568 42.5802V48.9731H48.9713V32.0306H52.8568V38.4688C53.655 37.761 54.6339 37.4071 55.7935 37.4071C57.0435 37.4071 58.06 37.8363 58.8432 38.6947C59.6263 39.5381 60.0178 40.645 60.0178 42.0154Z" fill="white"/>
<defs>
<radialGradient id="paint0_angular" cx="0" cy="0" r="1" gradientUnits="userSpaceOnUse" gradientTransform="translate(40.9999 41.8179) rotate(-90) scale(46.1021 45.4874)">
<stop stop-color="#01A2A5" stop-opacity="0"/>
<stop offset="0.651042" stop-color="#01A2A5"/>
</radialGradient>
</defs>
</svg>
